<?xml version="1.0" encoding="utf-8"?>
<!-- Generator: Adobe Illustrator 16.0.4, SVG Export Plug-In . SVG Version: 6.00 Build 0)  -->
<!DOCTYPE svg PUBLIC "-//W3C//DTD SVG 1.0//EN" "http://www.w3.org/TR/2001/REC-SVG-20010904/DTD/svg10.dtd">
<svg version="1.0" id="Ebene_1" xmlns="http://www.w3.org/2000/svg" xmlns:xlink="http://www.w3.org/1999/xlink" x="0px" y="0px"
	 width="2000px" height="1296.1px" viewBox="0 0 2000 1296.1" enable-background="new 0 0 2000 1296.1" xml:space="preserve">
<g id="logo">
	<path fill="#C31924" d="M1929.823,1005.424c-87.847,59.562-264.231,136.157-536.349,67.679
		c-26.032-6.739-50.873-13.437-74.756-20.671c-171.717-74.298-346.151-154.642-416.812-207.008
		c196.904,30.854,491.642,60.978,966.787-15.429C1868.693,829.995,1913.482,900.586,1929.823,1005.424 M82.91,1053.121L0,1082.365
		c0,0,94.585,112.649,111.198,149.743l23.197,63.963c0,0,300.021-165.094,736.43-140.212
		c99.027,5.625,185.956,34.334,185.956,34.334s-177.802-116.019-213.477-127.273c-171.141-42.682-334.053-55.273-430.436-58.717
		c-165.209,43.902-306.264,119.426-306.264,119.426S95.198,1089.22,82.91,1053.121"/>
	<path fill="#EDD023" d="M1996.619,949.388c0,0-22.048,25.839-66.796,56.036c-87.884,59.562-264.231,136.157-536.349,67.638
		c-26.032-6.735-50.794-13.396-74.797-20.589c-248.197-72.924-395.717-167.089-728.623-207.968
		c-225.571,5.514-454.246,31.963-579.338,81.569c0,0,34.221,34.989,44.249,49.573c5.054,10.83,16.88,44.706,27.983,77.474
		c12.249,36.099,23.655,70.508,23.655,70.508s141.055-75.523,306.264-119.426c77.513-20.749,160.614-34.491,236.71-30.09
		c254.014,16.002,458.917,147.334,686.095,254.053c157.666,44.059,542.136,77.478,650.578,28.597
		C1986.251,1256.763,2008.217,1152.643,1996.619,949.388"/>
	<path fill="#30318B" d="M675.797,372.153c-102.316,0-162.604,144.157-162.604,245.363c0,41.724,10.527,60.364,32.536,60.364
		c58.259,0,156.787-167.503,176.232-271.966l5.092-26.985C712.775,375.676,696.66,372.153,675.797,372.153 M797.599,804.508
		l-149.743,0.033c6.661-39.387,19.56-83.293,40.498-141.585l-2.297-0.083c-47.196,79.124-114.145,154.989-199.123,154.989
		c-86.968-0.037-130.604-56.073-130.644-173.742c0-206.971,107.562-396.562,348.484-396.523c13.092,0,26.298,1.149,47.159,4.364
		l24.229-126.509v-0.996c-24.267-4.44-60.401-8.879-92.403-11.024l21.015-102.623c76.251-7.463,154.414-13.167,245.555-9.836
		L797.599,804.508z M1700.157,804.541h-148.98l54.011-335.889c11.145-55.042,3.218-75.904-21.891-75.904
		c-50.684,0-142.167,133.935-163.105,265.077l-23.693,146.716h-148.786l55.656-335.889c10.945-55.042,3.365-75.904-21.933-75.904
		c-50.679,0-139.639,132.136-164.021,261.819l-28.597,150.089l-148.595-0.115l80.384-421.287v-3.252
		c-24.23-4.363-60.441-8.882-92.48-11.024l20.939-102.547c79.199-8.766,154.071-13.206,236.556-9.838
		c-8.727,42.872-23.116,92.251-41.873,140.711l2.297,0.076c49.532-84.67,102.393-149.821,199.201-149.821
		c64.915,0.039,107.023,34.145,107.023,107.87c0,13.282-3.291,27.405-8.768,49.454l1.15,1.072
		c50.525-91.294,111.928-158.396,208.537-158.396c106.757,0.039,128.462,77.055,108.596,179.372L1700.157,804.541z"/>
</g>
<g>
</g>
<g>
</g>
<g>
</g>
<g>
</g>
<g>
</g>
<g>
</g>
</svg>
